<?xml version="1.0" encoding="UTF-8"?>
<svg xmlns="http://www.w3.org/2000/svg" xmlns:xlink="http://www.w3.org/1999/xlink" width="32px" height="32px" viewBox="0 0 32 32" version="1.1">
<g id="surface1">
<path style=" stroke:none;fill-rule:nonzero;fill:rgb(0%,0%,0%);fill-opacity:1;" d="M 7.226562 19.144531 C 7.488281 19.273438 7.808594 19.167969 7.941406 18.90625 C 8.074219 18.644531 7.96875 18.324219 7.707031 18.191406 C 7.628906 18.152344 5.804688 17.179688 5.324219 14.3125 C 5.285156 14.078125 5.09375 13.894531 4.855469 13.871094 C 4.613281 13.84375 4.394531 13.980469 4.304688 14.203125 C 3.148438 17.097656 5.328125 20.421875 5.421875 20.5625 C 5.523438 20.71875 5.695312 20.800781 5.867188 20.800781 C 5.96875 20.800781 6.070312 20.769531 6.160156 20.710938 C 6.40625 20.546875 6.472656 20.214844 6.3125 19.972656 C 6.296875 19.949219 5.394531 18.570312 5.117188 16.945312 C 5.992188 18.507812 7.160156 19.109375 7.226562 19.144531 Z M 7.226562 19.144531 "/>
<path style=" stroke:none;fill-rule:nonzero;fill:rgb(0%,0%,0%);fill-opacity:1;" d="M 9.703125 20.257812 C 9.992188 20.199219 10.179688 19.917969 10.125 19.628906 C 10.066406 19.339844 9.789062 19.152344 9.496094 19.210938 C 8.425781 19.425781 6.398438 20.589844 6.398438 23.464844 C 6.398438 25.554688 6.835938 27.003906 7.175781 27.808594 C 6.007812 28.035156 5.332031 28.769531 5.332031 29.867188 C 5.332031 31.101562 6.453125 32 8 32 L 8.535156 32 C 9.417969 32 9.960938 31.335938 10.019531 31.261719 C 10.203125 31.03125 10.160156 30.695312 9.929688 30.511719 C 9.695312 30.332031 9.359375 30.375 9.179688 30.605469 C 9.175781 30.609375 8.90625 30.933594 8.535156 30.933594 L 8 30.933594 C 7.203125 30.933594 6.398438 30.566406 6.398438 29.867188 C 6.398438 29.601562 6.398438 28.800781 8 28.800781 C 8.195312 28.800781 8.375 28.691406 8.46875 28.519531 C 8.5625 28.347656 8.550781 28.136719 8.445312 27.972656 C 8.433594 27.957031 7.464844 26.4375 7.464844 23.464844 C 7.464844 20.761719 9.617188 20.273438 9.703125 20.257812 Z M 9.703125 20.257812 "/>
<path style=" stroke:none;fill-rule:nonzero;fill:rgb(0%,0%,0%);fill-opacity:1;" d="M 24.824219 27.808594 C 25.164062 27.003906 25.601562 25.554688 25.601562 23.464844 C 25.601562 20.589844 23.574219 19.425781 22.503906 19.210938 C 22.214844 19.152344 21.933594 19.339844 21.875 19.628906 C 21.820312 19.917969 22.007812 20.199219 22.296875 20.257812 C 22.386719 20.273438 24.535156 20.734375 24.535156 23.464844 C 24.535156 26.4375 23.566406 27.957031 23.554688 27.96875 C 23.449219 28.132812 23.4375 28.34375 23.53125 28.519531 C 23.621094 28.691406 23.804688 28.800781 24 28.800781 C 25.601562 28.800781 25.601562 29.601562 25.601562 29.867188 C 25.601562 30.566406 24.796875 30.933594 24 30.933594 L 23.464844 30.933594 C 23.097656 30.933594 22.828125 30.613281 22.816406 30.601562 C 22.636719 30.375 22.304688 30.332031 22.070312 30.511719 C 21.839844 30.695312 21.796875 31.03125 21.980469 31.261719 C 22.039062 31.335938 22.582031 32 23.464844 32 L 24 32 C 25.546875 32 26.667969 31.101562 26.667969 29.867188 C 26.667969 28.769531 25.992188 28.035156 24.824219 27.808594 Z M 24.824219 27.808594 "/>
<path style=" stroke:none;fill-rule:nonzero;fill:rgb(0%,0%,0%);fill-opacity:1;" d="M 19.289062 27.773438 L 20.257812 21.953125 C 20.308594 21.664062 20.113281 21.390625 19.820312 21.339844 C 19.527344 21.292969 19.253906 21.488281 19.207031 21.777344 L 18.214844 27.734375 L 18.132812 27.734375 C 17.839844 27.734375 17.601562 27.972656 17.601562 28.265625 C 17.601562 28.5625 17.839844 28.800781 18.132812 28.800781 L 18.667969 28.800781 C 20.265625 28.800781 20.265625 29.601562 20.265625 29.867188 C 20.265625 30.566406 19.460938 30.933594 18.667969 30.933594 L 18.132812 30.933594 C 17.25 30.933594 16.535156 30.214844 16.535156 29.332031 L 16.535156 21.867188 C 16.535156 21.574219 16.296875 21.332031 16 21.332031 C 15.707031 21.332031 15.464844 21.574219 15.464844 21.867188 L 15.464844 29.332031 C 15.464844 30.214844 14.75 30.933594 13.867188 30.933594 L 13.332031 30.933594 C 12.539062 30.933594 11.734375 30.566406 11.734375 29.867188 C 11.734375 29.601562 11.734375 28.800781 13.332031 28.800781 L 13.867188 28.800781 C 14.160156 28.800781 14.398438 28.5625 14.398438 28.265625 C 14.398438 27.972656 14.160156 27.734375 13.867188 27.734375 L 13.785156 27.734375 L 12.792969 21.777344 C 12.746094 21.488281 12.46875 21.292969 12.179688 21.339844 C 11.886719 21.390625 11.691406 21.664062 11.742188 21.953125 L 12.710938 27.773438 C 11.417969 27.953125 10.667969 28.707031 10.667969 29.867188 C 10.667969 31.101562 11.789062 32 13.332031 32 L 13.867188 32 C 14.738281 32 15.511719 31.578125 16 30.933594 C 16.488281 31.578125 17.261719 32 18.132812 32 L 18.667969 32 C 20.210938 32 21.332031 31.101562 21.332031 29.867188 C 21.332031 28.707031 20.582031 27.953125 19.289062 27.773438 Z M 19.289062 27.773438 "/>
<path style=" stroke:none;fill-rule:nonzero;fill:rgb(0%,0%,0%);fill-opacity:1;" d="M 29.277344 4.5625 C 28.105469 2.214844 25.28125 0 23.464844 0 C 22.4375 0 20.664062 1.597656 19.773438 2.46875 C 18.746094 1.585938 17.492188 1.066406 16 1.066406 C 14.507812 1.066406 13.253906 1.585938 12.226562 2.46875 C 11.335938 1.597656 9.5625 0 8.535156 0 C 6.71875 0 3.894531 2.214844 2.722656 4.5625 C 2.371094 5.265625 2.132812 6.21875 2.132812 6.933594 C 2.132812 8.402344 3.328125 9.601562 4.800781 9.601562 C 6.125 9.601562 6.71875 8.730469 7.195312 8.027344 C 7.253906 7.945312 7.308594 7.859375 7.378906 7.761719 L 9.511719 4.5625 C 9.675781 4.316406 9.609375 3.984375 9.363281 3.824219 C 9.117188 3.660156 8.785156 3.726562 8.621094 3.96875 L 6.496094 7.160156 C 6.433594 7.246094 6.375 7.339844 6.3125 7.429688 C 5.832031 8.132812 5.523438 8.535156 4.800781 8.535156 C 3.917969 8.535156 3.199219 7.816406 3.199219 6.933594 C 3.199219 6.378906 3.394531 5.601562 3.675781 5.039062 C 4.726562 2.9375 7.269531 1.066406 8.535156 1.066406 C 8.988281 1.066406 10.34375 2.125 11.472656 3.222656 C 9.46875 5.554688 8.535156 9.453125 8.535156 13.332031 C 8.535156 18.257812 10.695312 20.265625 16 20.265625 C 21.304688 20.265625 23.464844 18.257812 23.464844 13.332031 C 23.464844 9.453125 22.53125 5.554688 20.527344 3.222656 C 21.65625 2.125 23.011719 1.066406 23.464844 1.066406 C 24.730469 1.066406 27.273438 2.9375 28.324219 5.039062 C 28.605469 5.601562 28.800781 6.378906 28.800781 6.933594 C 28.800781 7.816406 28.082031 8.535156 27.199219 8.535156 C 26.449219 8.535156 26.152344 8.136719 25.652344 7.382812 L 23.378906 3.96875 C 23.214844 3.726562 22.882812 3.660156 22.636719 3.824219 C 22.390625 3.984375 22.324219 4.316406 22.488281 4.5625 L 24.761719 7.972656 C 25.269531 8.734375 25.839844 9.601562 27.199219 9.601562 C 28.671875 9.601562 29.867188 8.402344 29.867188 6.933594 C 29.867188 6.21875 29.628906 5.265625 29.277344 4.5625 Z M 22.398438 13.332031 C 22.398438 17.664062 20.726562 19.199219 16 19.199219 C 11.273438 19.199219 9.601562 17.664062 9.601562 13.332031 C 9.601562 7.757812 11.578125 2.132812 16 2.132812 C 20.421875 2.132812 22.398438 7.757812 22.398438 13.332031 Z M 22.398438 13.332031 "/>
<path style=" stroke:none;fill-rule:nonzero;fill:rgb(0%,0%,0%);fill-opacity:1;" d="M 18.726562 15.753906 C 18.632812 15.933594 18.277344 15.996094 18.132812 16 C 17.507812 16 16.863281 15.46875 16.628906 14.855469 C 17.507812 14.660156 18.132812 14.0625 18.132812 13.332031 C 18.132812 12.4375 17.195312 11.734375 16 11.734375 C 14.804688 11.734375 13.867188 12.4375 13.867188 13.332031 C 13.867188 14.0625 14.492188 14.660156 15.371094 14.855469 C 15.136719 15.46875 14.492188 16 13.871094 16 C 13.71875 15.996094 13.367188 15.933594 13.269531 15.75 C 13.132812 15.488281 12.808594 15.390625 12.550781 15.527344 C 12.289062 15.667969 12.191406 15.988281 12.328125 16.25 C 12.75 17.042969 13.753906 17.066406 13.867188 17.066406 C 14.695312 17.066406 15.496094 16.59375 16 15.917969 C 16.503906 16.59375 17.304688 17.066406 18.132812 17.066406 C 18.246094 17.066406 19.261719 17.042969 19.675781 16.246094 C 19.808594 15.984375 19.707031 15.660156 19.445312 15.527344 C 19.183594 15.390625 18.859375 15.492188 18.726562 15.753906 Z M 16 13.867188 C 15.359375 13.867188 14.933594 13.546875 14.933594 13.332031 C 14.933594 13.121094 15.359375 12.800781 16 12.800781 C 16.652344 12.800781 17.066406 13.117188 17.066406 13.332031 C 17.066406 13.550781 16.652344 13.867188 16 13.867188 Z M 16 13.867188 "/>
<path style=" stroke:none;fill-rule:nonzero;fill:rgb(0%,0%,0%);fill-opacity:1;" d="M 18.398438 9.601562 C 18.839844 9.601562 19.199219 9.242188 19.199219 8.800781 C 19.199219 8.359375 18.839844 8 18.398438 8 C 17.957031 8 17.601562 8.359375 17.601562 8.800781 C 17.601562 9.242188 17.957031 9.601562 18.398438 9.601562 Z M 18.398438 9.601562 "/>
<path style=" stroke:none;fill-rule:nonzero;fill:rgb(0%,0%,0%);fill-opacity:1;" d="M 13.601562 9.601562 C 14.042969 9.601562 14.398438 9.242188 14.398438 8.800781 C 14.398438 8.359375 14.042969 8 13.601562 8 C 13.160156 8 12.800781 8.359375 12.800781 8.800781 C 12.800781 9.242188 13.160156 9.601562 13.601562 9.601562 Z M 13.601562 9.601562 "/>
</g>
</svg>
