<?xml version="1.0" encoding="UTF-8"?>
<svg xmlns="http://www.w3.org/2000/svg" xmlns:xlink="http://www.w3.org/1999/xlink" width="26px" height="26px" viewBox="0 0 26 26" version="1.1">
<g id="surface1">
<path style=" stroke:none;fill-rule:nonzero;fill:rgb(0%,0%,0%);fill-opacity:1;" d="M 19.488281 1.730469 C 18.398438 1.613281 17.296875 1.558594 16.199219 1.558594 C 12.554688 1.558594 10.292969 3.878906 10.292969 7.617188 L 10.292969 10.152344 L 7.230469 10.152344 C 6.933594 10.152344 6.691406 10.394531 6.6875 10.691406 L 6.6875 14.863281 C 6.6875 15.164062 6.929688 15.40625 7.230469 15.40625 L 10.292969 15.40625 L 10.292969 23.769531 C 10.292969 24.066406 10.535156 24.308594 10.832031 24.308594 L 15.140625 24.308594 C 15.441406 24.3125 15.683594 24.070312 15.683594 23.769531 L 15.683594 15.40625 L 18.734375 15.40625 C 19.007812 15.40625 19.238281 15.203125 19.273438 14.933594 L 19.8125 10.761719 C 19.851562 10.46875 19.640625 10.195312 19.34375 10.15625 C 19.320312 10.152344 19.296875 10.152344 19.273438 10.152344 L 15.683594 10.152344 L 15.683594 8.03125 C 15.683594 6.980469 15.894531 6.539062 17.210938 6.539062 L 19.417969 6.539062 C 19.71875 6.539062 19.960938 6.296875 19.960938 6 L 19.960938 2.265625 C 19.960938 1.996094 19.757812 1.765625 19.488281 1.730469 Z M 18.875 5.457031 L 17.210938 5.457031 C 14.871094 5.457031 14.601562 6.925781 14.601562 8.03125 L 14.601562 10.695312 C 14.601562 10.992188 14.84375 11.234375 15.140625 11.234375 L 18.65625 11.234375 L 18.257812 14.324219 L 15.140625 14.324219 C 14.84375 14.324219 14.601562 14.566406 14.601562 14.863281 L 14.601562 23.226562 L 11.375 23.226562 L 11.375 14.863281 C 11.375 14.566406 11.132812 14.324219 10.835938 14.324219 L 7.773438 14.324219 L 7.773438 11.234375 L 10.832031 11.234375 C 11.132812 11.234375 11.375 10.992188 11.375 10.695312 L 11.375 7.617188 C 11.375 4.503906 13.179688 2.644531 16.199219 2.644531 C 17.292969 2.644531 18.277344 2.703125 18.875 2.753906 Z M 18.875 5.457031 "/>
</g>
</svg>
