<?xml version="1.0" encoding="UTF-8"?>
<svg xmlns="http://www.w3.org/2000/svg" xmlns:xlink="http://www.w3.org/1999/xlink" width="26px" height="26px" viewBox="0 0 26 26" version="1.1">
<g id="surface1">
<path style=" stroke:none;fill-rule:nonzero;fill:rgb(0%,0%,0%);fill-opacity:1;" d="M 23.832031 3.792969 L 2.167969 3.792969 C 0.96875 3.792969 0 4.761719 0 5.957031 L 0 20.042969 C 0 21.238281 0.96875 22.207031 2.167969 22.207031 L 23.832031 22.207031 C 25.03125 22.207031 26 21.238281 26 20.042969 L 26 5.957031 C 26 4.761719 25.03125 3.792969 23.832031 3.792969 Z M 24.917969 20.042969 C 24.917969 20.640625 24.433594 21.125 23.832031 21.125 L 2.167969 21.125 C 1.566406 21.125 1.082031 20.640625 1.082031 20.042969 L 1.082031 5.957031 C 1.082031 5.359375 1.566406 4.875 2.167969 4.875 L 23.832031 4.875 C 24.433594 4.875 24.917969 5.359375 24.917969 5.957031 Z M 24.917969 20.042969 "/>
<path style=" stroke:none;fill-rule:nonzero;fill:rgb(0%,0%,0%);fill-opacity:1;" d="M 22.972656 6.546875 C 22.777344 6.460938 22.550781 6.496094 22.390625 6.636719 L 13 14.984375 L 3.609375 6.636719 C 3.449219 6.496094 3.222656 6.460938 3.027344 6.546875 C 2.832031 6.632812 2.707031 6.828125 2.707031 7.042969 L 2.707031 20.042969 C 2.707031 20.339844 2.949219 20.582031 3.25 20.582031 C 3.550781 20.582031 3.792969 20.339844 3.792969 20.042969 L 3.792969 8.246094 L 12.640625 16.113281 C 12.84375 16.296875 13.15625 16.296875 13.359375 16.113281 L 22.207031 8.246094 L 22.207031 19.5 C 22.207031 19.800781 22.449219 20.042969 22.75 20.042969 C 23.050781 20.042969 23.292969 19.800781 23.292969 19.5 L 23.292969 7.042969 C 23.292969 6.828125 23.167969 6.636719 22.972656 6.546875 Z M 22.972656 6.546875 "/>
<path style=" stroke:none;fill-rule:nonzero;fill:rgb(0%,0%,0%);fill-opacity:1;" d="M 12.648438 12.871094 C 12.851562 13.042969 13.148438 13.042969 13.351562 12.871094 L 20.390625 6.914062 C 20.613281 6.71875 20.636719 6.382812 20.445312 6.15625 C 20.253906 5.933594 19.921875 5.902344 19.691406 6.085938 L 13 11.75 L 6.308594 6.085938 C 6.160156 5.957031 5.957031 5.914062 5.769531 5.980469 C 5.585938 6.046875 5.449219 6.207031 5.414062 6.398438 C 5.382812 6.59375 5.457031 6.789062 5.609375 6.914062 Z M 12.648438 12.871094 "/>
</g>
</svg>
