<?xml version="1.0" encoding="UTF-8"?>
<svg xmlns="http://www.w3.org/2000/svg" xmlns:xlink="http://www.w3.org/1999/xlink" width="26px" height="26px" viewBox="0 0 26 26" version="1.1">
<g id="surface1">
<path style=" stroke:none;fill-rule:nonzero;fill:rgb(0%,0%,0%);fill-opacity:1;" d="M 18.789062 5.914062 C 18.070312 5.914062 17.484375 6.5 17.484375 7.210938 C 17.484375 7.929688 18.070312 8.515625 18.789062 8.515625 C 19.5 8.515625 20.085938 7.929688 20.085938 7.210938 C 20.085938 6.5 19.5 5.914062 18.789062 5.914062 Z M 23.765625 8.539062 C 23.75 7.632812 23.578125 6.746094 23.265625 5.90625 C 22.996094 5.179688 22.5625 4.527344 22.015625 3.984375 C 21.480469 3.429688 20.820312 3.003906 20.09375 2.742188 C 19.253906 2.421875 18.367188 2.25 17.460938 2.234375 C 16.320312 2.164062 15.945312 2.164062 13 2.164062 C 10.054688 2.164062 9.679688 2.164062 8.539062 2.234375 C 7.632812 2.25 6.746094 2.421875 5.90625 2.742188 C 5.179688 3.003906 4.527344 3.4375 3.984375 3.984375 C 3.429688 4.519531 3.003906 5.179688 2.742188 5.90625 C 2.421875 6.746094 2.25 7.632812 2.234375 8.539062 C 2.164062 9.679688 2.164062 10.054688 2.164062 13 C 2.164062 15.945312 2.164062 16.320312 2.234375 17.460938 C 2.25 18.367188 2.421875 19.253906 2.742188 20.09375 C 3.003906 20.820312 3.429688 21.480469 3.984375 22.015625 C 4.527344 22.5625 5.179688 22.996094 5.90625 23.257812 C 6.746094 23.578125 7.632812 23.75 8.539062 23.765625 C 9.679688 23.835938 10.054688 23.835938 13 23.835938 C 15.945312 23.835938 16.320312 23.835938 17.460938 23.765625 C 18.367188 23.75 19.253906 23.578125 20.09375 23.257812 C 20.820312 22.996094 21.480469 22.570312 22.015625 22.015625 C 22.570312 21.472656 22.996094 20.820312 23.265625 20.09375 C 23.578125 19.253906 23.75 18.367188 23.765625 17.460938 C 23.765625 16.320312 23.835938 15.945312 23.835938 13 C 23.835938 10.054688 23.835938 9.679688 23.765625 8.539062 Z M 21.820312 17.335938 C 21.8125 18.019531 21.683594 18.703125 21.445312 19.347656 C 21.277344 19.820312 21 20.242188 20.632812 20.59375 C 20.289062 20.953125 19.863281 21.226562 19.390625 21.40625 C 18.746094 21.640625 18.0625 21.765625 17.375 21.777344 C 16.292969 21.828125 15.894531 21.835938 13.042969 21.835938 C 10.1875 21.835938 9.792969 21.835938 8.710938 21.777344 C 8 21.785156 7.289062 21.675781 6.609375 21.445312 C 6.164062 21.257812 5.757812 20.992188 5.414062 20.632812 C 5.0625 20.289062 4.78125 19.863281 4.613281 19.390625 C 4.351562 18.738281 4.207031 18.035156 4.179688 17.335938 C 4.179688 16.25 4.113281 15.851562 4.113281 13 C 4.113281 10.148438 4.113281 9.75 4.179688 8.664062 C 4.1875 7.964844 4.316406 7.269531 4.5625 6.609375 C 4.75 6.152344 5.046875 5.746094 5.414062 5.414062 C 5.746094 5.046875 6.152344 4.75 6.609375 4.554688 C 7.269531 4.308594 7.964844 4.1875 8.664062 4.179688 C 9.75 4.179688 10.148438 4.113281 13 4.113281 C 15.851562 4.113281 16.25 4.113281 17.335938 4.179688 C 18.019531 4.1875 18.703125 4.316406 19.347656 4.554688 C 19.835938 4.730469 20.28125 5.027344 20.632812 5.414062 C 20.992188 5.746094 21.269531 6.152344 21.445312 6.609375 C 21.691406 7.269531 21.820312 7.964844 21.820312 8.664062 C 21.867188 9.75 21.886719 10.148438 21.886719 13 C 21.886719 15.851562 21.867188 16.25 21.820312 17.335938 Z M 13 7.4375 C 9.9375 7.445312 7.445312 9.9375 7.457031 13.007812 C 7.457031 16.070312 9.945312 18.5625 13.015625 18.5625 C 16.078125 18.554688 18.570312 16.0625 18.570312 13 C 18.570312 11.527344 17.984375 10.105469 16.945312 9.0625 C 15.894531 8.023438 14.472656 7.4375 13 7.4375 Z M 13 16.605469 C 11.011719 16.605469 9.394531 14.988281 9.394531 13 C 9.394531 11.011719 11.011719 9.394531 13 9.394531 C 14.988281 9.394531 16.605469 11.011719 16.605469 13 C 16.605469 14.988281 14.988281 16.605469 13 16.605469 Z M 13 16.605469 "/>
</g>
</svg>
