<?xml version="1.0" encoding="UTF-8"?>
<svg xmlns="http://www.w3.org/2000/svg" xmlns:xlink="http://www.w3.org/1999/xlink" width="26px" height="26px" viewBox="0 0 26 26" version="1.1">
<g id="surface1">
<path style=" stroke:none;fill-rule:nonzero;fill:rgb(0%,0%,0%);fill-opacity:1;" d="M 19.054688 17.003906 C 18.597656 16.546875 17.972656 16.289062 17.328125 16.289062 C 16.679688 16.289062 16.058594 16.546875 15.601562 17.003906 L 14.421875 18.183594 C 13.09375 17.34375 11.867188 16.355469 10.757812 15.242188 C 9.648438 14.132812 8.660156 12.902344 7.816406 11.578125 L 8.996094 10.398438 C 9.453125 9.941406 9.710938 9.320312 9.710938 8.671875 C 9.710938 8.027344 9.453125 7.402344 8.996094 6.945312 L 6.695312 4.65625 C 6.242188 4.195312 5.625 3.9375 4.980469 3.941406 C 4.332031 3.9375 3.707031 4.195312 3.25 4.65625 L 2.144531 5.753906 C 1.078125 6.898438 0.589844 8.46875 0.8125 10.019531 C 1.074219 13.066406 3.070312 16.730469 6.152344 19.816406 C 9.230469 22.90625 12.933594 24.894531 15.980469 25.1875 C 16.210938 25.199219 16.4375 25.199219 16.664062 25.1875 C 17.988281 25.242188 19.28125 24.761719 20.246094 23.855469 L 21.34375 22.75 C 21.804688 22.292969 22.0625 21.667969 22.058594 21.019531 C 22.0625 20.375 21.804688 19.757812 21.34375 19.304688 Z M 20.199219 21.605469 L 19.09375 22.703125 C 18.265625 23.390625 17.183594 23.6875 16.121094 23.515625 C 13.480469 23.285156 10.117188 21.417969 7.335938 18.640625 C 4.558594 15.859375 2.6875 12.519531 2.4375 9.878906 C 2.261719 8.816406 2.558594 7.730469 3.25 6.90625 L 4.394531 5.800781 C 4.550781 5.648438 4.757812 5.5625 4.972656 5.566406 C 5.1875 5.5625 5.394531 5.648438 5.550781 5.800781 L 7.847656 8.125 C 8.164062 8.441406 8.164062 8.953125 7.847656 9.269531 L 6.222656 10.894531 C 5.960938 11.15625 5.910156 11.558594 6.09375 11.878906 C 7.066406 13.535156 8.25 15.058594 9.613281 16.414062 C 10.964844 17.773438 12.488281 18.957031 14.144531 19.929688 C 14.464844 20.117188 14.867188 20.0625 15.128906 19.800781 L 16.753906 18.175781 C 17.070312 17.859375 17.582031 17.859375 17.898438 18.175781 L 20.199219 20.476562 C 20.351562 20.628906 20.4375 20.835938 20.433594 21.050781 C 20.429688 21.257812 20.34375 21.457031 20.199219 21.605469 Z M 21.613281 4.378906 C 19.332031 2.089844 16.230469 0.804688 13 0.8125 C 12.550781 0.8125 12.1875 1.175781 12.1875 1.625 C 12.1875 2.074219 12.550781 2.4375 13 2.4375 C 15.816406 2.4375 18.515625 3.5625 20.5 5.5625 C 22.484375 7.5625 23.585938 10.273438 23.5625 13.089844 C 23.5625 13.539062 23.925781 13.902344 24.375 13.902344 C 24.824219 13.902344 25.1875 13.539062 25.1875 13.089844 C 25.21875 9.824219 23.929688 6.683594 21.613281 4.378906 Z M 21.613281 4.378906 "/>
<path style=" stroke:none;fill-rule:nonzero;fill:rgb(0%,0%,0%);fill-opacity:1;" d="M 16.988281 9.027344 C 17.921875 9.953125 18.4375 11.214844 18.425781 12.527344 C 18.425781 12.976562 18.792969 13.339844 19.238281 13.339844 C 19.6875 13.339844 20.050781 12.976562 20.050781 12.527344 C 20.074219 10.789062 19.398438 9.117188 18.175781 7.878906 C 16.957031 6.644531 15.289062 5.949219 13.550781 5.949219 C 13.105469 5.949219 12.738281 6.3125 12.738281 6.761719 C 12.738281 7.207031 13.105469 7.574219 13.550781 7.574219 C 14.84375 7.582031 16.082031 8.105469 16.988281 9.027344 Z M 16.988281 9.027344 "/>
</g>
</svg>
