<?xml version="1.0" encoding="UTF-8"?>
<svg xmlns="http://www.w3.org/2000/svg" xmlns:xlink="http://www.w3.org/1999/xlink" width="26px" height="26px" viewBox="0 0 26 26" version="1.1">
<g id="surface1">
<path style=" stroke:none;fill-rule:nonzero;fill:rgb(0%,0%,0%);fill-opacity:1;" d="M 8.824219 23.238281 C 6.496094 23.238281 3.800781 22.636719 0.816406 20.964844 C 0.59375 20.839844 0.488281 20.570312 0.570312 20.324219 C 0.648438 20.082031 0.890625 19.917969 1.144531 19.953125 C 3.113281 20.179688 5.257812 19.71875 6.859375 18.777344 C 5.023438 18.347656 3.539062 17.15625 2.757812 15.421875 C 2.667969 15.230469 2.703125 15 2.84375 14.839844 C 2.984375 14.679688 3.207031 14.621094 3.410156 14.679688 C 3.644531 14.753906 3.878906 14.804688 4.105469 14.832031 C 2.710938 14 1.21875 12.40625 1.21875 10.019531 C 1.21875 9.8125 1.339844 9.621094 1.527344 9.53125 C 1.714844 9.441406 1.9375 9.46875 2.101562 9.597656 C 2.273438 9.738281 2.460938 9.855469 2.652344 9.949219 C 2.214844 9.359375 1.898438 8.691406 1.710938 7.980469 C 1.351562 6.59375 1.558594 5.183594 2.3125 3.914062 C 2.40625 3.761719 2.566406 3.660156 2.742188 3.648438 C 2.921875 3.636719 3.09375 3.710938 3.203125 3.851562 C 4.796875 5.84375 7.632812 8.25 12.1875 8.6875 C 12.105469 7.246094 12.539062 4.882812 14.527344 3.722656 C 16.976562 2.292969 19.335938 2.476562 21.359375 4.25 C 22.257812 4.050781 23.671875 3.433594 23.964844 3.230469 C 24.152344 3.101562 24.398438 3.101562 24.585938 3.230469 C 24.773438 3.359375 24.859375 3.59375 24.800781 3.8125 C 24.664062 4.324219 24.359375 4.890625 23.976562 5.398438 C 24.277344 5.308594 24.53125 5.21875 24.667969 5.148438 C 24.886719 5.035156 25.152344 5.082031 25.316406 5.261719 C 25.480469 5.445312 25.503906 5.710938 25.375 5.917969 C 24.738281 6.925781 23.707031 7.863281 23.019531 8.375 C 23.390625 12.949219 20.714844 18.066406 16.421875 20.914062 C 14.832031 21.972656 12.214844 23.238281 8.824219 23.238281 Z M 3.414062 21.023438 C 9.210938 23.402344 13.597656 21.488281 15.824219 20.011719 C 19.890625 17.308594 22.394531 12.441406 21.910156 8.171875 C 21.886719 7.96875 21.980469 7.769531 22.152344 7.65625 C 22.445312 7.464844 22.886719 7.113281 23.335938 6.675781 C 22.894531 6.773438 22.46875 6.835938 22.15625 6.835938 C 21.859375 6.800781 21.671875 6.652344 21.625 6.398438 C 21.574219 6.144531 21.714844 5.886719 21.957031 5.792969 C 22.261719 5.671875 22.675781 5.300781 23.035156 4.847656 C 22.421875 5.085938 21.757812 5.296875 21.269531 5.367188 C 21.105469 5.390625 20.941406 5.335938 20.824219 5.222656 C 19.113281 3.617188 17.179688 3.425781 15.074219 4.65625 C 13.183594 5.761719 13.140625 8.335938 13.339844 9.148438 C 13.382812 9.316406 13.34375 9.492188 13.234375 9.625 C 13.125 9.757812 12.957031 9.832031 12.785156 9.820312 C 7.941406 9.566406 4.796875 7.277344 2.902344 5.171875 C 2.589844 5.980469 2.539062 6.871094 2.761719 7.710938 C 3.078125 8.9375 3.878906 9.878906 4.488281 10.234375 C 4.683594 10.347656 4.789062 10.570312 4.75 10.789062 C 4.714844 11.011719 4.542969 11.1875 4.324219 11.234375 C 3.683594 11.351562 3.027344 11.28125 2.425781 11.03125 C 2.988281 13.292969 5.339844 14.355469 6 14.429688 C 6.214844 14.453125 6.394531 14.601562 6.457031 14.808594 C 6.519531 15.015625 6.453125 15.242188 6.289062 15.382812 C 5.816406 15.78125 5.109375 15.972656 4.308594 15.933594 C 5.214844 17.140625 6.621094 17.832031 8.296875 17.871094 C 8.519531 17.875 8.714844 18.015625 8.792969 18.222656 C 8.871094 18.433594 8.8125 18.667969 8.648438 18.816406 C 7.316406 20.007812 5.40625 20.789062 3.414062 21.023438 Z M 3.414062 21.023438 "/>
</g>
</svg>
